ffmpeg started on 2016-12-01 at 12:37:54
Report written to "Output/x264/results/ffmpeg/old_town_cross_2160p50slow1500k.log"
Command line:
Tools/ffmpeg/ffmpeg -benchmark -y -i Input/y4m/old_town_cross_2160p50.y4m -c:v libx264 -preset slow -b:v 1500k -an Output/x264/encoded/old_town_cross_2160p50slow1500k.mkv
ffmpeg version N-82227-gdb23fde Copyright (c) 2000-2016 the FFmpeg developers
  built with gcc 5.4.0 (Ubuntu 5.4.0-6ubuntu1~16.04.2) 20160609
  configuration: --prefix=/home/jaroslav/ffmpeg_build --pkg-config-flags=--static --extra-cflags=-I/home/jaroslav/ffmpeg_build/include --extra-ldflags=-L/home/jaroslav/ffmpeg_build/lib --bindir=/home/jaroslav/bin --enable-gpl --enable-libass --enable-libfdk-aac --enable-libfreetype --enable-libmp3lame --enable-libopus --enable-libtheora --enable-libvorbis --enable-libvpx --enable-libx264 --enable-libx265 --enable-nvenc --enable-libmfx --enable-libxvid --enable-libgsm --enable-libopencore-amrnb --enable-version3 --enable-nonfree
  libavutil      55. 35.100 / 55. 35.100
  libavcodec     57. 66.101 / 57. 66.101
  libavformat    57. 57.100 / 57. 57.100
  libavdevice    57.  2.100 / 57.  2.100
  libavfilter     6. 66.100 /  6. 66.100
  libswscale      4.  3.100 /  4.  3.100
  libswresample   2.  4.100 /  2.  4.100
  libpostproc    54.  2.100 / 54.  2.100
Input #0, yuv4mpegpipe, from 'Input/y4m/old_town_cross_2160p50.y4m':
  Duration: 00:00:10.00, start: 0.000000, bitrate: 4976642 kb/s
    Stream #0:0: Video: rawvideo (I420 / 0x30323449), yuv420p(progressive), 3840x2160, SAR 1:1 DAR 16:9, 50 fps, 50 tbr, 50 tbn, 50 tbc
[libx264 @ 0x435d120] using SAR=1/1
[libx264 @ 0x435d120] using cpu capabilities: MMX2 SSE2Fast SSSE3 SSE4.2 AVX FMA3 AVX2 LZCNT BMI2
[libx264 @ 0x435d120] profile High, level 5.2
[libx264 @ 0x435d120] 264 - core 148 - H.264/MPEG-4 AVC codec - Copyleft 2003-2016 - http://www.videolan.org/x264.html - options: cabac=1 ref=5 deblock=1:0:0 analyse=0x3:0x113 me=hex subme=8 psy=1 psy_rd=1.00:0.00 mixed_ref=1 me_range=16 chroma_me=1 trellis=2 8x8dct=1 cqm=0 deadzone=21,11 fast_pskip=1 chroma_qp_offset=-2 threads=6 lookahead_threads=1 sliced_threads=0 nr=0 decimate=1 interlaced=0 bluray_compat=0 constrained_intra=0 bframes=3 b_pyramid=2 b_adapt=1 b_bias=0 direct=3 weightb=1 open_gop=0 weightp=2 keyint=250 keyint_min=25 scenecut=40 intra_refresh=0 rc_lookahead=50 rc=abr mbtree=1 bitrate=1500 ratetol=1.0 qcomp=0.60 qpmin=0 qpmax=69 qpstep=4 ip_ratio=1.40 aq=1:1.00
Output #0, matroska, to 'Output/x264/encoded/old_town_cross_2160p50slow1500k.mkv':
  Metadata:
    encoder         : Lavf57.57.100
    Stream #0:0: Video: h264 (libx264) (H264 / 0x34363248), yuv420p, 3840x2160 [SAR 1:1 DAR 16:9], q=-1--1, 1500 kb/s, 50 fps, 1k tbn, 50 tbc
    Metadata:
      encoder         : Lavc57.66.101 libx264
    Side data:
      cpb: bitrate max/min/avg: 0/0/1500000 buffer size: 0 vbv_delay: -1
Stream mapping:
  Stream #0:0 -> #0:0 (rawvideo (native) -> h264 (libx264))
Press [q] to stop, [?] for help
frame=   57 fps= 18 q=0.0 size=       0kB time=00:00:00.00 bitrate=N/A speed=   0x    frame=   66 fps= 18 q=55.0 size=       1kB time=00:00:00.06 bitrate=  96.3kbits/s speed=0.0164x    frame=   74 fps= 17 q=55.0 size=       1kB time=00:00:00.22 bitrate=  26.6kbits/s speed=0.0523x    frame=   83 fps= 18 q=54.0 size=       1kB time=00:00:00.40 bitrate=  14.6kbits/s speed=0.0847x    frame=   92 fps= 17 q=52.0 size=       1kB time=00:00:00.58 bitrate=  10.1kbits/s speed=0.11x    frame=  101 fps= 17 q=52.0 size=       1kB time=00:00:00.76 bitrate=   7.7kbits/s speed=0.13x    frame=  110 fps= 17 q=51.0 size=       1kB time=00:00:00.94 bitrate=   6.2kbits/s speed=0.145x    frame=  118 fps= 17 q=51.0 size=       1kB time=00:00:01.10 bitrate=   5.3kbits/s speed=0.158x    frame=  127 fps= 17 q=51.0 size=       1kB time=00:00:01.28 bitrate=   4.6kbits/s speed=0.171x    frame=  136 fps= 17 q=51.0 size=       1kB time=00:00:01.46 bitrate=   4.0kbits/s speed=0.181x    frame=  144 fps= 17 q=51.0 size=       1kB time=00:00:01.62 bitrate=   3.6kbits/s speed=0.187x    frame=  153 fps= 17 q=51.0 size=       1kB time=00:00:01.80 bitrate=   3.3kbits/s speed=0.194x    frame=  160 fps= 16 q=51.0 size=       1kB time=00:00:01.94 bitrate=   3.0kbits/s speed=0.198x    frame=  170 fps= 16 q=51.0 size=       1kB time=00:00:02.14 bitrate=   2.7kbits/s speed=0.207x    frame=  177 fps= 16 q=50.0 size=       1kB time=00:00:02.28 bitrate=   2.6kbits/s speed=0.21x    frame=  186 fps= 16 q=50.0 size=       1kB time=00:00:02.46 bitrate=   2.4kbits/s speed=0.217x    frame=  193 fps= 16 q=50.0 size=       1kB time=00:00:02.60 bitrate=   2.3kbits/s speed=0.219x    frame=  201 fps= 16 q=50.0 size=       1kB time=00:00:02.76 bitrate=   2.1kbits/s speed=0.223x    frame=  209 fps= 16 q=50.0 size=       1kB time=00:00:02.92 bitrate=   2.0kbits/s speed=0.226x    frame=  217 fps= 16 q=50.0 size=       1kB time=00:00:03.08 bitrate=   1.9kbits/s speed=0.229x    frame=  226 fps= 16 q=50.0 size=       1kB time=00:00:03.26 bitrate=   1.8kbits/s speed=0.233x    frame=  234 fps= 16 q=50.0 size=       1kB time=00:00:03.42 bitrate=   1.7kbits/s speed=0.236x    frame=  242 fps= 16 q=50.0 size=       1kB time=00:00:03.58 bitrate=   1.6kbits/s speed=0.239x    frame=  250 fps= 16 q=50.0 size=       1kB time=00:00:03.74 bitrate=   1.6kbits/s speed=0.241x    frame=  258 fps= 16 q=50.0 size=       1kB time=00:00:03.90 bitrate=   1.5kbits/s speed=0.243x    frame=  266 fps= 16 q=50.0 size=       1kB time=00:00:04.06 bitrate=   1.4kbits/s speed=0.245x    frame=  272 fps= 15 q=50.0 size=       1kB time=00:00:04.18 bitrate=   1.4kbits/s speed=0.23x    frame=  273 fps= 14 q=50.0 size=       1kB time=00:00:04.20 bitrate=   1.4kbits/s speed=0.222x    frame=  275 fps= 14 q=50.0 size=       1kB time=00:00:04.24 bitrate=   1.4kbits/s speed=0.213x    frame=  280 fps= 14 q=50.0 size=       1kB time=00:00:04.34 bitrate=   1.4kbits/s speed=0.212x    frame=  285 fps= 13 q=50.0 size=       1kB time=00:00:04.44 bitrate=   1.3kbits/s speed=0.21x    frame=  290 fps= 13 q=50.0 size=       1kB time=00:00:04.54 bitrate=   1.3kbits/s speed=0.209x    frame=  295 fps= 13 q=50.0 size=       1kB time=00:00:04.64 bitrate=   1.3kbits/s speed=0.208x    frame=  299 fps= 13 q=50.0 size=       1kB time=00:00:04.72 bitrate=   1.2kbits/s speed=0.207x    frame=  303 fps= 13 q=50.0 size=       1kB time=00:00:04.80 bitrate=   1.2kbits/s speed=0.206x    frame=  311 fps= 13 q=51.0 size=     872kB time=00:00:04.96 bitrate=1440.3kbits/s speed=0.206x    frame=  320 fps= 13 q=51.0 size=     872kB time=00:00:05.14 bitrate=1389.9kbits/s speed=0.209x    frame=  328 fps= 13 q=51.0 size=     872kB time=00:00:05.30 bitrate=1347.9kbits/s speed=0.212x    frame=  336 fps= 13 q=51.0 size=     872kB time=00:00:05.46 bitrate=1308.4kbits/s speed=0.214x    frame=  343 fps= 13 q=51.0 size=     872kB time=00:00:05.60 bitrate=1275.7kbits/s speed=0.215x    frame=  350 fps= 13 q=51.0 size=     872kB time=00:00:05.74 bitrate=1244.6kbits/s speed=0.216x    frame=  359 fps= 13 q=51.0 size=     872kB time=00:00:05.92 bitrate=1206.8kbits/s speed=0.218x    frame=  366 fps= 13 q=51.0 size=     872kB time=00:00:06.06 bitrate=1178.9kbits/s speed=0.219x    frame=  375 fps= 13 q=51.0 size=     872kB time=00:00:06.24 bitrate=1144.9kbits/s speed=0.221x    frame=  382 fps= 13 q=51.0 size=     872kB time=00:00:06.38 bitrate=1119.8kbits/s speed=0.222x    frame=  391 fps= 13 q=51.0 size=     872kB time=00:00:06.56 bitrate=1089.1kbits/s speed=0.224x    frame=  398 fps= 13 q=51.0 size=     872kB time=00:00:06.70 bitrate=1066.3kbits/s speed=0.225x    frame=  407 fps= 13 q=51.0 size=     872kB time=00:00:06.88 bitrate=1038.4kbits/s speed=0.226x    frame=  416 fps= 13 q=51.0 size=     872kB time=00:00:07.06 bitrate=1011.9kbits/s speed=0.229x    frame=  423 fps= 13 q=51.0 size=     872kB time=00:00:07.20 bitrate= 992.3kbits/s speed=0.229x    frame=  430 fps= 13 q=51.0 size=     872kB time=00:00:07.34 bitrate= 973.3kbits/s speed=0.23x    frame=  439 fps= 14 q=51.0 size=     872kB time=00:00:07.52 bitrate= 950.0kbits/s speed=0.232x    frame=  445 fps= 13 q=51.0 size=     872kB time=00:00:07.64 bitrate= 935.1kbits/s speed=0.232x    frame=  453 fps= 14 q=51.0 size=     872kB time=00:00:07.80 bitrate= 915.9kbits/s speed=0.233x    frame=  461 fps= 14 q=51.0 size=     872kB time=00:00:07.96 bitrate= 897.5kbits/s speed=0.233x    frame=  470 fps= 14 q=51.0 size=     872kB time=00:00:08.14 bitrate= 877.7kbits/s speed=0.235x    frame=  477 fps= 14 q=51.0 size=     872kB time=00:00:08.28 bitrate= 862.9kbits/s speed=0.236x    frame=  486 fps= 14 q=51.0 size=     872kB time=00:00:08.46 bitrate= 844.5kbits/s speed=0.237x    frame=  495 fps= 14 q=51.0 size=     872kB time=00:00:08.64 bitrate= 826.9kbits/s speed=0.238x    frame=  500 fps= 12 q=-1.0 Lsize=    1898kB time=00:00:09.94 bitrate=1564.1kbits/s speed=0.244x    
video:1894kB audio:0kB subtitle:0kB other streams:0kB global headers:0kB muxing overhead: 0.225035%
bench: utime=128.840s
bench: maxrss=2223124kB
[libx264 @ 0x435d120] frame I:3     Avg QP:46.42  size: 39615
[libx264 @ 0x435d120] frame P:183   Avg QP:48.93  size:  4955
[libx264 @ 0x435d120] frame B:314   Avg QP:49.59  size:  2907
[libx264 @ 0x435d120] consecutive B-frames: 16.0%  0.8%  0.0% 83.2%
[libx264 @ 0x435d120] mb I  I16..4: 38.4% 61.5%  0.2%
[libx264 @ 0x435d120] mb P  I16..4:  0.3%  0.1%  0.0%  P16..4:  7.2%  0.1%  1.5%  0.0%  0.0%    skip:90.7%
[libx264 @ 0x435d120] mb B  I16..4:  0.0%  0.0%  0.0%  B16..8: 14.1%  0.0%  0.0%  direct: 0.0%  skip:85.9%  L0:20.3% L1:79.7% BI: 0.0%
[libx264 @ 0x435d120] final ratefactor: 43.26
[libx264 @ 0x435d120] 8x8 transform intra:52.3% inter:98.0%
[libx264 @ 0x435d120] direct mvs  spatial:98.7% temporal:1.3%
[libx264 @ 0x435d120] coded y,uvDC,uvAC intra: 5.9% 14.0% 0.8% inter: 0.1% 0.3% 0.0%
[libx264 @ 0x435d120] i16 v,h,dc,p: 30% 45%  3% 22%
[libx264 @ 0x435d120] i8 v,h,dc,ddl,ddr,vr,hd,vl,hu: 15%  3% 56%  3%  6%  3%  6%  3%  5%
[libx264 @ 0x435d120] i4 v,h,dc,ddl,ddr,vr,hd,vl,hu:  5%  4%  2% 11% 19%  8% 18%  9% 25%
[libx264 @ 0x435d120] i8c dc,h,v,p: 43% 51%  5%  1%
[libx264 @ 0x435d120] Weighted P-Frames: Y:0.5% UV:0.0%
[libx264 @ 0x435d120] ref P L0: 80.9%  0.8% 11.5%  3.0%  3.2%  0.8%
[libx264 @ 0x435d120] ref B L0: 94.8%  3.1%  1.6%  0.5%
[libx264 @ 0x435d120] ref B L1: 98.0%  2.0%
[libx264 @ 0x435d120] kb/s:1550.85
